<mxfile host="app.diagrams.net" modified="2023-07-20T12:08:15.302Z" agent="Mozilla/5.0 (Macintosh; Intel Mac OS X 10_15_7) AppleWebKit/537.36 (KHTML, like Gecko) Chrome/114.0.0.0 Safari/537.36" etag="9Teopt3Twc6kOMAqQCOk" version="21.5.2" type="device">
  <diagram name="PÃ¡gina-1" id="rIqUe4WyIogmE3zDdpFF">
    <mxGraphModel dx="1019" dy="821" grid="1" gridSize="10" guides="1" tooltips="1" connect="1" arrows="1" fold="1" page="1" pageScale="1" pageWidth="827" pageHeight="1169" math="0" shadow="0">
      <root>
        <mxCell id="0" />
        <mxCell id="1" parent="0" />
        <mxCell id="FHGa05HmV8W9KMMEZWDE-86" value="" style="html=1;whiteSpace=wrap;aspect=fixed;shape=isoRectangle;strokeWidth=1;fillColor=#E5FAE4;strokeColor=#82b366;container=0;" parent="1" vertex="1">
          <mxGeometry x="179.47" y="270" width="150" height="90" as="geometry" />
        </mxCell>
        <mxCell id="FHGa05HmV8W9KMMEZWDE-87" value="" style="html=1;whiteSpace=wrap;aspect=fixed;shape=isoRectangle;rotation=-240;strokeWidth=1;fillColor=#d5e8d4;strokeColor=#82b366;container=0;" parent="1" vertex="1">
          <mxGeometry x="217.47" y="336" width="150" height="90" as="geometry" />
        </mxCell>
        <mxCell id="FHGa05HmV8W9KMMEZWDE-88" value="" style="html=1;whiteSpace=wrap;aspect=fixed;shape=isoRectangle;rotation=60;flipV=1;direction=west;fillColor=#BBCCBA;strokeColor=#82b366;container=0;" parent="1" vertex="1">
          <mxGeometry x="141.47" y="336" width="150" height="90" as="geometry" />
        </mxCell>
        <mxCell id="FHGa05HmV8W9KMMEZWDE-90" value="" style="html=1;whiteSpace=wrap;aspect=fixed;shape=isoRectangle;strokeWidth=1;fillColor=#E5FAE4;strokeColor=#82b366;container=0;" parent="1" vertex="1">
          <mxGeometry x="102" y="315" width="150" height="90" as="geometry" />
        </mxCell>
        <mxCell id="FHGa05HmV8W9KMMEZWDE-91" value="" style="html=1;whiteSpace=wrap;aspect=fixed;shape=isoRectangle;rotation=-240;strokeWidth=1;fillColor=#d5e8d4;strokeColor=#82b366;container=0;" parent="1" vertex="1">
          <mxGeometry x="140" y="381" width="150" height="90" as="geometry" />
        </mxCell>
        <mxCell id="FHGa05HmV8W9KMMEZWDE-92" value="" style="html=1;whiteSpace=wrap;aspect=fixed;shape=isoRectangle;rotation=60;flipV=1;direction=west;fillColor=#BBCCBA;strokeColor=#82b366;container=0;" parent="1" vertex="1">
          <mxGeometry x="64" y="381" width="150" height="90" as="geometry" />
        </mxCell>
        <mxCell id="FHGa05HmV8W9KMMEZWDE-142" value="" style="html=1;whiteSpace=wrap;aspect=fixed;shape=isoRectangle;strokeWidth=1;fillColor=#E5FAE4;strokeColor=#82b366;container=0;" parent="1" vertex="1">
          <mxGeometry x="255.94" y="315" width="150" height="90" as="geometry" />
        </mxCell>
        <mxCell id="FHGa05HmV8W9KMMEZWDE-143" value="" style="html=1;whiteSpace=wrap;aspect=fixed;shape=isoRectangle;rotation=-240;strokeWidth=1;fillColor=#d5e8d4;strokeColor=#82b366;container=0;" parent="1" vertex="1">
          <mxGeometry x="293.94" y="381" width="150" height="90" as="geometry" />
        </mxCell>
        <mxCell id="FHGa05HmV8W9KMMEZWDE-144" value="" style="html=1;whiteSpace=wrap;aspect=fixed;shape=isoRectangle;rotation=60;flipV=1;direction=west;fillColor=#BBCCBA;strokeColor=#82b366;container=0;" parent="1" vertex="1">
          <mxGeometry x="217.94" y="381" width="150" height="90" as="geometry" />
        </mxCell>
        <mxCell id="FHGa05HmV8W9KMMEZWDE-146" value="" style="html=1;whiteSpace=wrap;aspect=fixed;shape=isoRectangle;strokeWidth=1;fillColor=#E5FAE4;strokeColor=#82b366;container=0;" parent="1" vertex="1">
          <mxGeometry x="178.47" y="360" width="150" height="90" as="geometry" />
        </mxCell>
        <mxCell id="FHGa05HmV8W9KMMEZWDE-147" value="" style="html=1;whiteSpace=wrap;aspect=fixed;shape=isoRectangle;rotation=-240;strokeWidth=1;fillColor=#d5e8d4;strokeColor=#82b366;container=0;" parent="1" vertex="1">
          <mxGeometry x="216.47" y="426" width="150" height="90" as="geometry" />
        </mxCell>
        <mxCell id="FHGa05HmV8W9KMMEZWDE-148" value="" style="html=1;whiteSpace=wrap;aspect=fixed;shape=isoRectangle;rotation=60;flipV=1;direction=west;fillColor=#BBCCBA;strokeColor=#82b366;container=0;" parent="1" vertex="1">
          <mxGeometry x="140.47" y="426" width="150" height="90" as="geometry" />
        </mxCell>
        <mxCell id="FHGa05HmV8W9KMMEZWDE-254" value="&lt;font style=&quot;font-size: 20px;&quot;&gt;Sequence / Time&lt;/font&gt;" style="shape=curlyBracket;whiteSpace=wrap;html=1;rounded=1;labelPosition=left;verticalLabelPosition=middle;align=right;verticalAlign=middle;rotation=-60;strokeWidth=3;container=0;" parent="1" vertex="1">
          <mxGeometry x="268.65885682970026" y="365" width="20" height="440" as="geometry" />
        </mxCell>
        <mxCell id="FHGa05HmV8W9KMMEZWDE-150" value="" style="html=1;whiteSpace=wrap;aspect=fixed;shape=isoRectangle;strokeWidth=1;fillColor=#E5FAE4;strokeColor=#82b366;container=0;" parent="1" vertex="1">
          <mxGeometry x="332.88" y="360" width="150" height="90" as="geometry" />
        </mxCell>
        <mxCell id="FHGa05HmV8W9KMMEZWDE-151" value="" style="html=1;whiteSpace=wrap;aspect=fixed;shape=isoRectangle;rotation=-240;strokeWidth=1;fillColor=#d5e8d4;strokeColor=#82b366;container=0;" parent="1" vertex="1">
          <mxGeometry x="370.88" y="426" width="150" height="90" as="geometry" />
        </mxCell>
        <mxCell id="FHGa05HmV8W9KMMEZWDE-152" value="" style="html=1;whiteSpace=wrap;aspect=fixed;shape=isoRectangle;rotation=60;flipV=1;direction=west;fillColor=#BBCCBA;strokeColor=#82b366;container=0;" parent="1" vertex="1">
          <mxGeometry x="294.88" y="426" width="150" height="90" as="geometry" />
        </mxCell>
        <mxCell id="FHGa05HmV8W9KMMEZWDE-154" value="" style="html=1;whiteSpace=wrap;aspect=fixed;shape=isoRectangle;strokeWidth=1;fillColor=#E5FAE4;strokeColor=#82b366;container=0;" parent="1" vertex="1">
          <mxGeometry x="255.41" y="405" width="150" height="90" as="geometry" />
        </mxCell>
        <mxCell id="FHGa05HmV8W9KMMEZWDE-155" value="" style="html=1;whiteSpace=wrap;aspect=fixed;shape=isoRectangle;rotation=-240;strokeWidth=1;fillColor=#d5e8d4;strokeColor=#82b366;container=0;" parent="1" vertex="1">
          <mxGeometry x="293.40999999999997" y="471" width="150" height="90" as="geometry" />
        </mxCell>
        <mxCell id="FHGa05HmV8W9KMMEZWDE-156" value="" style="html=1;whiteSpace=wrap;aspect=fixed;shape=isoRectangle;rotation=60;flipV=1;direction=west;fillColor=#BBCCBA;strokeColor=#82b366;container=0;" parent="1" vertex="1">
          <mxGeometry x="217.41" y="471" width="150" height="90" as="geometry" />
        </mxCell>
        <mxCell id="FHGa05HmV8W9KMMEZWDE-158" value="" style="html=1;whiteSpace=wrap;aspect=fixed;shape=isoRectangle;strokeWidth=1;fillColor=#E5FAE4;strokeColor=#82b366;container=0;" parent="1" vertex="1">
          <mxGeometry x="409.34999999999997" y="405" width="150" height="90" as="geometry" />
        </mxCell>
        <mxCell id="FHGa05HmV8W9KMMEZWDE-159" value="" style="html=1;whiteSpace=wrap;aspect=fixed;shape=isoRectangle;rotation=-240;strokeWidth=1;fillColor=#d5e8d4;strokeColor=#82b366;container=0;" parent="1" vertex="1">
          <mxGeometry x="447.34999999999997" y="471" width="150" height="90" as="geometry" />
        </mxCell>
        <mxCell id="FHGa05HmV8W9KMMEZWDE-160" value="" style="html=1;whiteSpace=wrap;aspect=fixed;shape=isoRectangle;rotation=60;flipV=1;direction=west;fillColor=#BBCCBA;strokeColor=#82b366;container=0;" parent="1" vertex="1">
          <mxGeometry x="371.34999999999997" y="471" width="150" height="90" as="geometry" />
        </mxCell>
        <mxCell id="FHGa05HmV8W9KMMEZWDE-162" value="" style="html=1;whiteSpace=wrap;aspect=fixed;shape=isoRectangle;strokeWidth=1;fillColor=#E5FAE4;strokeColor=#82b366;container=0;" parent="1" vertex="1">
          <mxGeometry x="331.87999999999994" y="450" width="150" height="90" as="geometry" />
        </mxCell>
        <mxCell id="FHGa05HmV8W9KMMEZWDE-163" value="" style="html=1;whiteSpace=wrap;aspect=fixed;shape=isoRectangle;rotation=-240;strokeWidth=1;fillColor=#d5e8d4;strokeColor=#82b366;container=0;" parent="1" vertex="1">
          <mxGeometry x="369.87999999999994" y="516" width="150" height="90" as="geometry" />
        </mxCell>
        <mxCell id="FHGa05HmV8W9KMMEZWDE-164" value="" style="html=1;whiteSpace=wrap;aspect=fixed;shape=isoRectangle;rotation=60;flipV=1;direction=west;fillColor=#BBCCBA;strokeColor=#82b366;container=0;" parent="1" vertex="1">
          <mxGeometry x="293.87999999999994" y="516" width="150" height="90" as="geometry" />
        </mxCell>
        <mxCell id="FHGa05HmV8W9KMMEZWDE-166" value="" style="html=1;whiteSpace=wrap;aspect=fixed;shape=isoRectangle;strokeWidth=1;fillColor=#E5FAE4;strokeColor=#82b366;container=0;" parent="1" vertex="1">
          <mxGeometry x="486.29" y="450" width="150" height="90" as="geometry" />
        </mxCell>
        <mxCell id="FHGa05HmV8W9KMMEZWDE-167" value="" style="html=1;whiteSpace=wrap;aspect=fixed;shape=isoRectangle;rotation=-240;strokeWidth=1;fillColor=#d5e8d4;strokeColor=#82b366;container=0;" parent="1" vertex="1">
          <mxGeometry x="524.29" y="516" width="150" height="90" as="geometry" />
        </mxCell>
        <mxCell id="FHGa05HmV8W9KMMEZWDE-168" value="" style="html=1;whiteSpace=wrap;aspect=fixed;shape=isoRectangle;rotation=60;flipV=1;direction=west;fillColor=#BBCCBA;strokeColor=#82b366;container=0;" parent="1" vertex="1">
          <mxGeometry x="448.29" y="516" width="150" height="90" as="geometry" />
        </mxCell>
        <mxCell id="FHGa05HmV8W9KMMEZWDE-170" value="" style="html=1;whiteSpace=wrap;aspect=fixed;shape=isoRectangle;strokeWidth=1;fillColor=#E5FAE4;strokeColor=#82b366;container=0;" parent="1" vertex="1">
          <mxGeometry x="408.82" y="495" width="150" height="90" as="geometry" />
        </mxCell>
        <mxCell id="FHGa05HmV8W9KMMEZWDE-171" value="" style="html=1;whiteSpace=wrap;aspect=fixed;shape=isoRectangle;rotation=-240;strokeWidth=1;fillColor=#d5e8d4;strokeColor=#82b366;container=0;" parent="1" vertex="1">
          <mxGeometry x="446.82" y="561" width="150" height="90" as="geometry" />
        </mxCell>
        <mxCell id="FHGa05HmV8W9KMMEZWDE-172" value="" style="html=1;whiteSpace=wrap;aspect=fixed;shape=isoRectangle;rotation=60;flipV=1;direction=west;fillColor=#BBCCBA;strokeColor=#82b366;container=0;" parent="1" vertex="1">
          <mxGeometry x="370.82" y="561" width="150" height="90" as="geometry" />
        </mxCell>
        <mxCell id="FHGa05HmV8W9KMMEZWDE-255" value="&lt;font style=&quot;&quot;&gt;&lt;font style=&quot;font-size: 20px;&quot;&gt;Channels&lt;/font&gt;&lt;br&gt;&lt;/font&gt;" style="shape=curlyBracket;whiteSpace=wrap;html=1;rounded=1;flipH=1;labelPosition=right;verticalLabelPosition=middle;align=left;verticalAlign=middle;rotation=60;strokeWidth=3;container=0;" parent="1" vertex="1">
          <mxGeometry x="562.6388568297002" y="558.75" width="20" height="175" as="geometry" />
        </mxCell>
        <mxCell id="FHGa05HmV8W9KMMEZWDE-174" value="" style="html=1;whiteSpace=wrap;aspect=fixed;shape=isoRectangle;strokeWidth=1;fillColor=#E5FAE4;strokeColor=#82b366;container=0;" parent="1" vertex="1">
          <mxGeometry x="179.47" y="181" width="150" height="90" as="geometry" />
        </mxCell>
        <mxCell id="FHGa05HmV8W9KMMEZWDE-175" value="" style="html=1;whiteSpace=wrap;aspect=fixed;shape=isoRectangle;rotation=-240;strokeWidth=1;fillColor=#d5e8d4;strokeColor=#82b366;container=0;" parent="1" vertex="1">
          <mxGeometry x="217.47" y="247" width="150" height="90" as="geometry" />
        </mxCell>
        <mxCell id="FHGa05HmV8W9KMMEZWDE-176" value="" style="html=1;whiteSpace=wrap;aspect=fixed;shape=isoRectangle;rotation=60;flipV=1;direction=west;fillColor=#BBCCBA;strokeColor=#82b366;container=0;" parent="1" vertex="1">
          <mxGeometry x="141.47" y="247" width="150" height="90" as="geometry" />
        </mxCell>
        <mxCell id="FHGa05HmV8W9KMMEZWDE-178" value="" style="html=1;whiteSpace=wrap;aspect=fixed;shape=isoRectangle;strokeWidth=1;fillColor=#E5FAE4;strokeColor=#82b366;container=0;" parent="1" vertex="1">
          <mxGeometry x="102" y="226" width="150" height="90" as="geometry" />
        </mxCell>
        <mxCell id="FHGa05HmV8W9KMMEZWDE-179" value="" style="html=1;whiteSpace=wrap;aspect=fixed;shape=isoRectangle;rotation=-240;strokeWidth=1;fillColor=#d5e8d4;strokeColor=#82b366;container=0;" parent="1" vertex="1">
          <mxGeometry x="140" y="292" width="150" height="90" as="geometry" />
        </mxCell>
        <mxCell id="FHGa05HmV8W9KMMEZWDE-180" value="" style="html=1;whiteSpace=wrap;aspect=fixed;shape=isoRectangle;rotation=60;flipV=1;direction=west;fillColor=#BBCCBA;strokeColor=#82b366;container=0;" parent="1" vertex="1">
          <mxGeometry x="64" y="292" width="150" height="90" as="geometry" />
        </mxCell>
        <mxCell id="FHGa05HmV8W9KMMEZWDE-182" value="" style="html=1;whiteSpace=wrap;aspect=fixed;shape=isoRectangle;strokeWidth=1;fillColor=#E5FAE4;strokeColor=#82b366;container=0;" parent="1" vertex="1">
          <mxGeometry x="255.94" y="226" width="150" height="90" as="geometry" />
        </mxCell>
        <mxCell id="FHGa05HmV8W9KMMEZWDE-183" value="" style="html=1;whiteSpace=wrap;aspect=fixed;shape=isoRectangle;rotation=-240;strokeWidth=1;fillColor=#d5e8d4;strokeColor=#82b366;container=0;" parent="1" vertex="1">
          <mxGeometry x="293.94" y="292" width="150" height="90" as="geometry" />
        </mxCell>
        <mxCell id="FHGa05HmV8W9KMMEZWDE-184" value="" style="html=1;whiteSpace=wrap;aspect=fixed;shape=isoRectangle;rotation=60;flipV=1;direction=west;fillColor=#BBCCBA;strokeColor=#82b366;container=0;" parent="1" vertex="1">
          <mxGeometry x="217.94" y="292" width="150" height="90" as="geometry" />
        </mxCell>
        <mxCell id="FHGa05HmV8W9KMMEZWDE-186" value="" style="html=1;whiteSpace=wrap;aspect=fixed;shape=isoRectangle;strokeWidth=1;fillColor=#E5FAE4;strokeColor=#82b366;container=0;" parent="1" vertex="1">
          <mxGeometry x="178.47" y="271" width="150" height="90" as="geometry" />
        </mxCell>
        <mxCell id="FHGa05HmV8W9KMMEZWDE-187" value="" style="html=1;whiteSpace=wrap;aspect=fixed;shape=isoRectangle;rotation=-240;strokeWidth=1;fillColor=#d5e8d4;strokeColor=#82b366;container=0;" parent="1" vertex="1">
          <mxGeometry x="216.47" y="337" width="150" height="90" as="geometry" />
        </mxCell>
        <mxCell id="FHGa05HmV8W9KMMEZWDE-188" value="" style="html=1;whiteSpace=wrap;aspect=fixed;shape=isoRectangle;rotation=60;flipV=1;direction=west;fillColor=#BBCCBA;strokeColor=#82b366;container=0;" parent="1" vertex="1">
          <mxGeometry x="140.47" y="337" width="150" height="90" as="geometry" />
        </mxCell>
        <mxCell id="FHGa05HmV8W9KMMEZWDE-190" value="" style="html=1;whiteSpace=wrap;aspect=fixed;shape=isoRectangle;strokeWidth=1;fillColor=#E5FAE4;strokeColor=#82b366;container=0;" parent="1" vertex="1">
          <mxGeometry x="332.88" y="271" width="150" height="90" as="geometry" />
        </mxCell>
        <mxCell id="FHGa05HmV8W9KMMEZWDE-191" value="" style="html=1;whiteSpace=wrap;aspect=fixed;shape=isoRectangle;rotation=-240;strokeWidth=1;fillColor=#d5e8d4;strokeColor=#82b366;container=0;" parent="1" vertex="1">
          <mxGeometry x="370.88" y="337" width="150" height="90" as="geometry" />
        </mxCell>
        <mxCell id="FHGa05HmV8W9KMMEZWDE-192" value="" style="html=1;whiteSpace=wrap;aspect=fixed;shape=isoRectangle;rotation=60;flipV=1;direction=west;fillColor=#BBCCBA;strokeColor=#82b366;container=0;" parent="1" vertex="1">
          <mxGeometry x="294.88" y="337" width="150" height="90" as="geometry" />
        </mxCell>
        <mxCell id="FHGa05HmV8W9KMMEZWDE-194" value="" style="html=1;whiteSpace=wrap;aspect=fixed;shape=isoRectangle;strokeWidth=1;fillColor=#E5FAE4;strokeColor=#82b366;container=0;" parent="1" vertex="1">
          <mxGeometry x="255.41" y="316" width="150" height="90" as="geometry" />
        </mxCell>
        <mxCell id="FHGa05HmV8W9KMMEZWDE-195" value="" style="html=1;whiteSpace=wrap;aspect=fixed;shape=isoRectangle;rotation=-240;strokeWidth=1;fillColor=#d5e8d4;strokeColor=#82b366;container=0;" parent="1" vertex="1">
          <mxGeometry x="293.40999999999997" y="382" width="150" height="90" as="geometry" />
        </mxCell>
        <mxCell id="FHGa05HmV8W9KMMEZWDE-196" value="" style="html=1;whiteSpace=wrap;aspect=fixed;shape=isoRectangle;rotation=60;flipV=1;direction=west;fillColor=#BBCCBA;strokeColor=#82b366;container=0;" parent="1" vertex="1">
          <mxGeometry x="217.41" y="382" width="150" height="90" as="geometry" />
        </mxCell>
        <mxCell id="FHGa05HmV8W9KMMEZWDE-198" value="" style="html=1;whiteSpace=wrap;aspect=fixed;shape=isoRectangle;strokeWidth=1;fillColor=#E5FAE4;strokeColor=#82b366;container=0;" parent="1" vertex="1">
          <mxGeometry x="409.34999999999997" y="316" width="150" height="90" as="geometry" />
        </mxCell>
        <mxCell id="FHGa05HmV8W9KMMEZWDE-199" value="" style="html=1;whiteSpace=wrap;aspect=fixed;shape=isoRectangle;rotation=-240;strokeWidth=1;fillColor=#d5e8d4;strokeColor=#82b366;container=0;" parent="1" vertex="1">
          <mxGeometry x="447.34999999999997" y="382" width="150" height="90" as="geometry" />
        </mxCell>
        <mxCell id="FHGa05HmV8W9KMMEZWDE-200" value="" style="html=1;whiteSpace=wrap;aspect=fixed;shape=isoRectangle;rotation=60;flipV=1;direction=west;fillColor=#BBCCBA;strokeColor=#82b366;container=0;" parent="1" vertex="1">
          <mxGeometry x="371.34999999999997" y="382" width="150" height="90" as="geometry" />
        </mxCell>
        <mxCell id="FHGa05HmV8W9KMMEZWDE-202" value="" style="html=1;whiteSpace=wrap;aspect=fixed;shape=isoRectangle;strokeWidth=1;fillColor=#E5FAE4;strokeColor=#82b366;container=0;" parent="1" vertex="1">
          <mxGeometry x="331.87999999999994" y="361" width="150" height="90" as="geometry" />
        </mxCell>
        <mxCell id="FHGa05HmV8W9KMMEZWDE-203" value="" style="html=1;whiteSpace=wrap;aspect=fixed;shape=isoRectangle;rotation=-240;strokeWidth=1;fillColor=#d5e8d4;strokeColor=#82b366;container=0;" parent="1" vertex="1">
          <mxGeometry x="369.87999999999994" y="427" width="150" height="90" as="geometry" />
        </mxCell>
        <mxCell id="FHGa05HmV8W9KMMEZWDE-204" value="" style="html=1;whiteSpace=wrap;aspect=fixed;shape=isoRectangle;rotation=60;flipV=1;direction=west;fillColor=#BBCCBA;strokeColor=#82b366;container=0;" parent="1" vertex="1">
          <mxGeometry x="293.87999999999994" y="427" width="150" height="90" as="geometry" />
        </mxCell>
        <mxCell id="FHGa05HmV8W9KMMEZWDE-206" value="" style="html=1;whiteSpace=wrap;aspect=fixed;shape=isoRectangle;strokeWidth=1;fillColor=#E5FAE4;strokeColor=#82b366;container=0;" parent="1" vertex="1">
          <mxGeometry x="486.29" y="361" width="150" height="90" as="geometry" />
        </mxCell>
        <mxCell id="FHGa05HmV8W9KMMEZWDE-207" value="" style="html=1;whiteSpace=wrap;aspect=fixed;shape=isoRectangle;rotation=-240;strokeWidth=1;fillColor=#d5e8d4;strokeColor=#82b366;container=0;" parent="1" vertex="1">
          <mxGeometry x="524.29" y="427" width="150" height="90" as="geometry" />
        </mxCell>
        <mxCell id="FHGa05HmV8W9KMMEZWDE-208" value="" style="html=1;whiteSpace=wrap;aspect=fixed;shape=isoRectangle;rotation=60;flipV=1;direction=west;fillColor=#BBCCBA;strokeColor=#82b366;container=0;" parent="1" vertex="1">
          <mxGeometry x="448.29" y="427" width="150" height="90" as="geometry" />
        </mxCell>
        <mxCell id="FHGa05HmV8W9KMMEZWDE-210" value="" style="html=1;whiteSpace=wrap;aspect=fixed;shape=isoRectangle;strokeWidth=1;fillColor=#E5FAE4;strokeColor=#82b366;container=0;" parent="1" vertex="1">
          <mxGeometry x="408.82" y="406" width="150" height="90" as="geometry" />
        </mxCell>
        <mxCell id="FHGa05HmV8W9KMMEZWDE-211" value="" style="html=1;whiteSpace=wrap;aspect=fixed;shape=isoRectangle;rotation=-240;strokeWidth=1;fillColor=#d5e8d4;strokeColor=#82b366;container=0;" parent="1" vertex="1">
          <mxGeometry x="446.82" y="472" width="150" height="90" as="geometry" />
        </mxCell>
        <mxCell id="FHGa05HmV8W9KMMEZWDE-212" value="" style="html=1;whiteSpace=wrap;aspect=fixed;shape=isoRectangle;rotation=60;flipV=1;direction=west;fillColor=#BBCCBA;strokeColor=#82b366;container=0;" parent="1" vertex="1">
          <mxGeometry x="370.82" y="472" width="150" height="90" as="geometry" />
        </mxCell>
        <mxCell id="FHGa05HmV8W9KMMEZWDE-214" value="" style="html=1;whiteSpace=wrap;aspect=fixed;shape=isoRectangle;strokeWidth=1;fillColor=#fff2cc;strokeColor=#d6b656;container=0;" parent="1" vertex="1">
          <mxGeometry x="179.47" y="92" width="150" height="90" as="geometry" />
        </mxCell>
        <mxCell id="FHGa05HmV8W9KMMEZWDE-215" value="" style="html=1;whiteSpace=wrap;aspect=fixed;shape=isoRectangle;rotation=-240;strokeWidth=1;fillColor=#d5e8d4;strokeColor=#82b366;container=0;" parent="1" vertex="1">
          <mxGeometry x="217.47" y="158" width="150" height="90" as="geometry" />
        </mxCell>
        <mxCell id="FHGa05HmV8W9KMMEZWDE-216" value="" style="html=1;whiteSpace=wrap;aspect=fixed;shape=isoRectangle;rotation=60;flipV=1;direction=west;fillColor=#BBCCBA;strokeColor=#82b366;container=0;" parent="1" vertex="1">
          <mxGeometry x="141.47" y="158" width="150" height="90" as="geometry" />
        </mxCell>
        <mxCell id="FHGa05HmV8W9KMMEZWDE-218" value="" style="html=1;whiteSpace=wrap;aspect=fixed;shape=isoRectangle;strokeWidth=1;fillColor=#fff2cc;strokeColor=#d6b656;container=0;" parent="1" vertex="1">
          <mxGeometry x="102" y="137" width="150" height="90" as="geometry" />
        </mxCell>
        <mxCell id="FHGa05HmV8W9KMMEZWDE-219" value="" style="html=1;whiteSpace=wrap;aspect=fixed;shape=isoRectangle;rotation=-240;strokeWidth=1;fillColor=#d5e8d4;strokeColor=#82b366;container=0;" parent="1" vertex="1">
          <mxGeometry x="140" y="203" width="150" height="90" as="geometry" />
        </mxCell>
        <mxCell id="FHGa05HmV8W9KMMEZWDE-220" value="" style="html=1;whiteSpace=wrap;aspect=fixed;shape=isoRectangle;rotation=60;flipV=1;direction=west;fillColor=#E8DCBA;strokeColor=#d6b656;container=0;" parent="1" vertex="1">
          <mxGeometry x="64" y="203" width="150" height="90" as="geometry" />
        </mxCell>
        <mxCell id="FHGa05HmV8W9KMMEZWDE-253" value="&lt;font style=&quot;font-size: 20px;&quot;&gt;Batch&amp;nbsp;&lt;/font&gt;" style="shape=curlyBracket;whiteSpace=wrap;html=1;rounded=1;labelPosition=left;verticalLabelPosition=middle;align=right;verticalAlign=middle;strokeWidth=3;container=0;" parent="1" vertex="1">
          <mxGeometry x="63.99885682970026" y="180" width="20" height="267" as="geometry" />
        </mxCell>
        <mxCell id="FHGa05HmV8W9KMMEZWDE-222" value="" style="html=1;whiteSpace=wrap;aspect=fixed;shape=isoRectangle;strokeWidth=1;fillColor=#fff2cc;strokeColor=#d6b656;container=0;" parent="1" vertex="1">
          <mxGeometry x="255.94" y="137" width="150" height="90" as="geometry" />
        </mxCell>
        <mxCell id="FHGa05HmV8W9KMMEZWDE-223" value="" style="html=1;whiteSpace=wrap;aspect=fixed;shape=isoRectangle;rotation=-240;strokeWidth=1;fillColor=#d5e8d4;strokeColor=#82b366;container=0;" parent="1" vertex="1">
          <mxGeometry x="293.94" y="203" width="150" height="90" as="geometry" />
        </mxCell>
        <mxCell id="FHGa05HmV8W9KMMEZWDE-224" value="" style="html=1;whiteSpace=wrap;aspect=fixed;shape=isoRectangle;rotation=60;flipV=1;direction=west;fillColor=#BBCCBA;strokeColor=#82b366;container=0;" parent="1" vertex="1">
          <mxGeometry x="217.94" y="203" width="150" height="90" as="geometry" />
        </mxCell>
        <mxCell id="FHGa05HmV8W9KMMEZWDE-226" value="" style="html=1;whiteSpace=wrap;aspect=fixed;shape=isoRectangle;strokeWidth=1;fillColor=#fff2cc;strokeColor=#d6b656;container=0;" parent="1" vertex="1">
          <mxGeometry x="178.47" y="182" width="150" height="90" as="geometry" />
        </mxCell>
        <mxCell id="FHGa05HmV8W9KMMEZWDE-227" value="" style="html=1;whiteSpace=wrap;aspect=fixed;shape=isoRectangle;rotation=-240;strokeWidth=1;fillColor=#d5e8d4;strokeColor=#82b366;container=0;" parent="1" vertex="1">
          <mxGeometry x="216.47" y="248" width="150" height="90" as="geometry" />
        </mxCell>
        <mxCell id="FHGa05HmV8W9KMMEZWDE-228" value="" style="html=1;whiteSpace=wrap;aspect=fixed;shape=isoRectangle;rotation=60;flipV=1;direction=west;fillColor=#E8DCBA;strokeColor=#d6b656;container=0;" parent="1" vertex="1">
          <mxGeometry x="140.47" y="248" width="150" height="90" as="geometry" />
        </mxCell>
        <mxCell id="FHGa05HmV8W9KMMEZWDE-230" value="" style="html=1;whiteSpace=wrap;aspect=fixed;shape=isoRectangle;strokeWidth=1;fillColor=#fff2cc;strokeColor=#d6b656;container=0;" parent="1" vertex="1">
          <mxGeometry x="332.88" y="182" width="150" height="90" as="geometry" />
        </mxCell>
        <mxCell id="FHGa05HmV8W9KMMEZWDE-231" value="" style="html=1;whiteSpace=wrap;aspect=fixed;shape=isoRectangle;rotation=-240;strokeWidth=1;fillColor=#d5e8d4;strokeColor=#82b366;container=0;" parent="1" vertex="1">
          <mxGeometry x="370.88" y="248" width="150" height="90" as="geometry" />
        </mxCell>
        <mxCell id="FHGa05HmV8W9KMMEZWDE-232" value="" style="html=1;whiteSpace=wrap;aspect=fixed;shape=isoRectangle;rotation=60;flipV=1;direction=west;fillColor=#BBCCBA;strokeColor=#82b366;container=0;" parent="1" vertex="1">
          <mxGeometry x="294.88" y="248" width="150" height="90" as="geometry" />
        </mxCell>
        <mxCell id="FHGa05HmV8W9KMMEZWDE-234" value="" style="html=1;whiteSpace=wrap;aspect=fixed;shape=isoRectangle;strokeWidth=1;fillColor=#fff2cc;strokeColor=#d6b656;container=0;" parent="1" vertex="1">
          <mxGeometry x="255.41" y="227" width="150" height="90" as="geometry" />
        </mxCell>
        <mxCell id="FHGa05HmV8W9KMMEZWDE-235" value="" style="html=1;whiteSpace=wrap;aspect=fixed;shape=isoRectangle;rotation=-240;strokeWidth=1;fillColor=#d5e8d4;strokeColor=#82b366;container=0;" parent="1" vertex="1">
          <mxGeometry x="293.40999999999997" y="293" width="150" height="90" as="geometry" />
        </mxCell>
        <mxCell id="FHGa05HmV8W9KMMEZWDE-236" value="" style="html=1;whiteSpace=wrap;aspect=fixed;shape=isoRectangle;rotation=60;flipV=1;direction=west;fillColor=#E8DCBA;strokeColor=#d6b656;container=0;" parent="1" vertex="1">
          <mxGeometry x="217.41" y="293" width="150" height="90" as="geometry" />
        </mxCell>
        <mxCell id="FHGa05HmV8W9KMMEZWDE-238" value="" style="html=1;whiteSpace=wrap;aspect=fixed;shape=isoRectangle;strokeWidth=1;fillColor=#fff2cc;strokeColor=#d6b656;container=0;" parent="1" vertex="1">
          <mxGeometry x="409.34999999999997" y="227" width="150" height="90" as="geometry" />
        </mxCell>
        <mxCell id="FHGa05HmV8W9KMMEZWDE-239" value="" style="html=1;whiteSpace=wrap;aspect=fixed;shape=isoRectangle;rotation=-240;strokeWidth=1;fillColor=#d5e8d4;strokeColor=#82b366;container=0;" parent="1" vertex="1">
          <mxGeometry x="447.34999999999997" y="293" width="150" height="90" as="geometry" />
        </mxCell>
        <mxCell id="FHGa05HmV8W9KMMEZWDE-240" value="" style="html=1;whiteSpace=wrap;aspect=fixed;shape=isoRectangle;rotation=60;flipV=1;direction=west;fillColor=#BBCCBA;strokeColor=#82b366;container=0;" parent="1" vertex="1">
          <mxGeometry x="371.34999999999997" y="293" width="150" height="90" as="geometry" />
        </mxCell>
        <mxCell id="FHGa05HmV8W9KMMEZWDE-242" value="" style="html=1;whiteSpace=wrap;aspect=fixed;shape=isoRectangle;strokeWidth=1;fillColor=#fff2cc;strokeColor=#d6b656;container=0;" parent="1" vertex="1">
          <mxGeometry x="331.87999999999994" y="272" width="150" height="90" as="geometry" />
        </mxCell>
        <mxCell id="FHGa05HmV8W9KMMEZWDE-243" value="" style="html=1;whiteSpace=wrap;aspect=fixed;shape=isoRectangle;rotation=-240;strokeWidth=1;fillColor=#d5e8d4;strokeColor=#82b366;container=0;" parent="1" vertex="1">
          <mxGeometry x="369.87999999999994" y="338" width="150" height="90" as="geometry" />
        </mxCell>
        <mxCell id="FHGa05HmV8W9KMMEZWDE-244" value="" style="html=1;whiteSpace=wrap;aspect=fixed;shape=isoRectangle;rotation=60;flipV=1;direction=west;fillColor=#E8DCBA;strokeColor=#d6b656;container=0;" parent="1" vertex="1">
          <mxGeometry x="293.87999999999994" y="338" width="150" height="90" as="geometry" />
        </mxCell>
        <mxCell id="FHGa05HmV8W9KMMEZWDE-246" value="" style="html=1;whiteSpace=wrap;aspect=fixed;shape=isoRectangle;strokeWidth=1;fillColor=#fff2cc;strokeColor=#d6b656;container=0;" parent="1" vertex="1">
          <mxGeometry x="486.29" y="272" width="150" height="90" as="geometry" />
        </mxCell>
        <mxCell id="FHGa05HmV8W9KMMEZWDE-247" value="" style="html=1;whiteSpace=wrap;aspect=fixed;shape=isoRectangle;rotation=-240;strokeWidth=1;fillColor=#FFF2DD;strokeColor=#d6b656;container=0;" parent="1" vertex="1">
          <mxGeometry x="524.29" y="338" width="150" height="90" as="geometry" />
        </mxCell>
        <mxCell id="FHGa05HmV8W9KMMEZWDE-248" value="" style="html=1;whiteSpace=wrap;aspect=fixed;shape=isoRectangle;rotation=60;flipV=1;direction=west;fillColor=#BBCCBA;strokeColor=#82b366;container=0;" parent="1" vertex="1">
          <mxGeometry x="448.29" y="338" width="150" height="90" as="geometry" />
        </mxCell>
        <mxCell id="FHGa05HmV8W9KMMEZWDE-250" value="" style="html=1;whiteSpace=wrap;aspect=fixed;shape=isoRectangle;strokeWidth=1;fillColor=#fff2cc;strokeColor=#d6b656;container=0;" parent="1" vertex="1">
          <mxGeometry x="408.82" y="317" width="150" height="90" as="geometry" />
        </mxCell>
        <mxCell id="FHGa05HmV8W9KMMEZWDE-251" value="" style="html=1;whiteSpace=wrap;aspect=fixed;shape=isoRectangle;rotation=-240;strokeWidth=1;fillColor=#FFF2DD;strokeColor=#d6b656;container=0;" parent="1" vertex="1">
          <mxGeometry x="446.82" y="383" width="150" height="90" as="geometry" />
        </mxCell>
        <mxCell id="FHGa05HmV8W9KMMEZWDE-252" value="" style="html=1;whiteSpace=wrap;aspect=fixed;shape=isoRectangle;rotation=60;flipV=1;direction=west;fillColor=#E8DCBA;strokeColor=#d6b656;container=0;" parent="1" vertex="1">
          <mxGeometry x="370.82" y="383" width="150" height="90" as="geometry" />
        </mxCell>
        <mxCell id="N_aQJQYrSyg9-nj_W5Yt-2" value="" style="endArrow=classic;startArrow=classic;html=1;rounded=0;" edge="1" parent="1">
          <mxGeometry width="50" height="50" relative="1" as="geometry">
            <mxPoint x="280" y="90" as="sourcePoint" />
            <mxPoint x="640" y="310" as="targetPoint" />
            <Array as="points">
              <mxPoint x="580" y="150" />
            </Array>
          </mxGeometry>
        </mxCell>
        <mxCell id="N_aQJQYrSyg9-nj_W5Yt-3" value="&lt;font style=&quot;font-size: 20px;&quot;&gt;Sequence&lt;/font&gt;" style="text;html=1;strokeColor=none;fillColor=none;align=center;verticalAlign=middle;whiteSpace=wrap;rounded=0;" vertex="1" parent="1">
          <mxGeometry x="598.29" y="128" width="60" height="30" as="geometry" />
        </mxCell>
      </root>
    </mxGraphModel>
  </diagram>
</mxfile>
